/* XPM */
static char *eaaaaf32465a4f36bb180b6b6eeb13d6LSw8GD8miMXLHNdP[] = {
/* columns rows colors chars-per-pixel */
"50 50 148 2 ",
"   c None",
".  c black",
"X  c #7D3D07",
"o  c #7A5229",
"O  c #813E08",
"+  c #9D3A04",
"@  c #A93D04",
"#  c #CD3F02",
"$  c #864108",
"%  c #AF5E0D",
"&  c #B5570B",
"*  c #B6580B",
"=  c #BB5B0A",
"-  c #9E670E",
";  c #A0610C",
":  c #BD610B",
">  c #BD6A0D",
",  c #A8641C",
"<  c #805A30",
"1  c #9D642F",
"2  c #9C6533",
"3  c #976B3F",
"4  c #986A3C",
"5  c #D04403",
"6  c #C5660A",
"7  c #C16F0C",
"8  c #DD6E06",
"9  c #D16E09",
"0  c #D3740A",
"q  c #E26808",
"w  c #E77108",
"e  c #F67607",
"r  c #F77D0D",
"t  c #966D43",
"y  c #967046",
"u  c #96724A",
"i  c #D98008",
"p  c #CD8810",
"a  c #EA8C07",
"s  c #E9870B",
"d  c #EE8B09",
"f  c #F88707",
"g  c #F98C07",
"h  c #F7810D",
"j  c #F88109",
"k  c #F88C0A",
"l  c #EB9E0C",
"z  c #F99407",
"x  c #FA9907",
"c  c #F8940D",
"v  c #FA9A09",
"b  c #F78511",
"n  c #F78C14",
"m  c #EE9415",
"M  c #F79517",
"N  c #F89314",
"B  c #F79B17",
"V  c #F89B11",
"C  c #F79D18",
"Z  c #ECAD0D",
"A  c #FCA504",
"S  c #FBAB05",
"D  c #F9A30E",
"F  c #FAAD0D",
"G  c #EEBA09",
"H  c #FDB503",
"J  c #FDBC03",
"K  c #FBB40B",
"L  c #FBBD0F",
"P  c #F8A517",
"I  c #F9AB14",
"U  c #F8A218",
"Y  c #F9B412",
"T  c #FABC11",
"R  c #FABE18",
"E  c #EFC206",
"W  c #EFCB04",
"Q  c #FDC303",
"!  c #F0CE03",
"~  c #FECB01",
"^  c #FBC30D",
"/  c #FCCB0A",
"(  c #F0D002",
")  c #FFD202",
"_  c #FEDE04",
"`  c #FDD309",
"'  c #FEDB0A",
"]  c #FBC116",
"[  c #FBCB16",
"{  c #FAC218",
"}  c #FECD1C",
"|  c #FBD315",
" . c #FEE003",
".. c #FCE51E",
"X. c #FCEC1E",
"o. c #FBC622",
"O. c #FBC821",
"+. c #FCCC2D",
"@. c #FED62B",
"#. c #FED82C",
"$. c #FCCF32",
"%. c #FCD136",
"&. c #FDD832",
"*. c #FCD43C",
"=. c #FDD642",
"-. c #FDDA4D",
";. c #FDDC51",
":. c #FDDF5C",
">. c #FEE444",
",. c #FEE944",
"<. c #FDE05B",
"1. c #FEE56B",
"2. c #FEE77E",
"3. c #FEE97A",
"4. c #D3BDA3",
"5. c #FEEA81",
"6. c #FEEE8B",
"7. c #FEEE94",
"8. c #FEF096",
"9. c #FEF19B",
"0. c #FEF5AD",
"q. c #FFF6BF",
"w. c #C9C8C4",
"e. c #E2DCD6",
"r. c #F7E3CC",
"t. c #F9E5CD",
"y. c #FFF7C0",
"u. c #FFF8C0",
"i. c #EEE2D4",
"p. c #ECE4DC",
"a. c #F2E3D3",
"s. c #F0E5D8",
"d. c #FFFBD4",
"f. c #FFFBDA",
"g. c #EAE6E2",
"h. c #EAE8E5",
"j. c #EDEDED",
"k. c #FFFCED",
"l. c #F0F1F1",
"z. c #F2F3F3",
"x. c #F1F2F2",
"c. c #F3F3F4",
"v. c #F5F5F6",
"b. c #F7F7F8",
"n. c #F8F8F8",
"m. c #FAFAFA",
"M. c #FFFFFD",
"N. c #FFFFFE",
/* pixels */
"                                                                                                    ",
"                                                                                                    ",
"                                                                                                    ",
"                                                                                                    ",
"                                                                                                    ",
"            * * * * * * * * * * * * * * * * * *                                                     ",
"        = [ X.X.X.X.X.X.X.X.X.X.X.X.X.X.X.X.X...m                                                   ",
"        [ Q ~ ) ) ) ) ) ) ) ) ) ) ) ) ) ) ) ) ~ J *                                                 ",
"        H Q / ` ` ` ` ` ` ` ` ` ` ` ` ` ` ` ` / J *                                                 ",
"        S L ^ ^ ^ ^ ^ ^ ^ ^ ^ ^ ^ ^ ^ ^ ^ ^ ^ ^ K s l Z G E W ! ( ( ( ! ! W E E G Z Z l =           ",
"        v Y Y Y Y Y Y Y Y Y Y Y Y Y Y Y Y Y Y Y F v x x x x x x x x x x x x x x x x x z | 6         ",
"        c p - - - - - - - - - - - - - - - - - - - - - - - - - - - - - - - - - - - - ; ; 0 I         ",
"        b 7 g.m.m.m.m.m.m.b.b.m.m.m.b.b.v.v.v.v.c.c.c.c.c.c.z.z.z.c.z.z.z.z.z.z.z.z.j.e.> r         ",
"        q * 4.t.t.t.t.t.t.r.r.r.a.a.a.a.a.i.s.p.p.p.i.p.p.p.p.p.p.p.h.g.g.h.h.h.h.h.j.w.% w         ",
"      * # + o 2 , 1 2 2 2 2 2 2 2 2 2 2 2 4 3 3 t t t t t t t t t t t y y y y y u y y < @ 5 *       ",
"  = g ..X.X.X.X.X.X.X.X.X.X.X.X.X.X.X.X.X.X.X.X.X.X.X.X.X.X.X.X.X.X.X.X.X.X.X.X.X.X.X.X.X.X...j *   ",
"  ] Q ~ ~ ~ ) ) ) ) ) ) ) ) ) ) ) ) ) ) ) ) ) ) ) ) ) ) ) ) ) ) ) ) ) ) ) ) ) ) ) ) ) ) ~ ~ ~ Q ]   ",
"  J ~ #.M.M.M.M.M.M.M.M.M.M.M.M.M.M.M.M.M.M.M.M.M.M.M.M.M.M.M.M.M.M.M.M.M.M.M.M.M.M.M.M.M.M.@.~ J   ",
"  J ~ k.d.d.d.d.d.d.d.d.d.d.d.d.d.d.d.d.d.d.d.d.d.d.d.d.d.d.d.d.d.d.d.d.d.d.d.d.d.d.d.d.d.d.k.~ J   ",
"  H ~ f.q.y.u.u.u.u.u.u.u.u.u.u.Q ~ ~ ~ ~ ~ ~ ~ ~ ~ ~ ~ Q u.u.u.u.u.u.u.u.u.u.u.u.u.u.u.q.q.f.~ H   ",
"  H ~ y.0.0.0.0.0.0.0.0.0.0.0.0.~ >.>.,.,.,.,.,.,.,.,.>.) Q 0.0.0.0.0.0.0.0.0.0.0.0.0.0.0.0.q.Q H   ",
"  i Q 0.9.9.9.9.9.9.9.9.9.9.9.9.) 0.0.0.0.0.0.0.0.0.0.0._ ) J 9.9.9.9.9.9.9.9.9.9.9.9.9.9.9.0.Q i   ",
"  : J <.6.6.6.6.6.6.6.6.6.6.6.6.~ 8.7.7.7.7.7.7.7.9.7.8. ._ ~ J 6.6.6.6.6.6.6.6.6.6.6.6.6.6.:.J :   ",
"  * H } 2.3.3.3.3.3.3.3.3.3.3.3.~ 2.2.5.5.5.5.5.5.5.2.5.' ' ` ~ H 3.3.3.3.3.3.3.3.3.3.3.3.2.} H *   ",
"    H Q 1.1.1.1.1.1.1.1.1.1.1.1.Q 1.1.1.1.1.1.1.1.1.1.1.` ` ` ` Q H 1.1.1.1.1.1.1.1.1.1.1.1.Q H     ",
"    S J :.:.:.:.:.:.:.:.:.:.:.:.Q :.:.:.:.:.:.:.:.:.:.:.&.&.&.&.&.J :.:.:.:.:.:.:.:.:.:.:.:.J S     ",
"    A J -.;.-.;.-.-.-.-.-.-.-.-.J -.-.-.-.-.-.-.-.-.-.-.-.-.-.-.-.J -.-.-.-.-.-.-.-.-.-.-.-.J A     ",
"    a H *.=.=.=.=.=.=.=.=.=.=.=.K *.*.*.*.*.*.*.*.*.*.*.*.*.*.*.*.K =.=.=.=.=.=.=.=.=.=./ ^ H a     ",
"    6 S +.%.%.%.%.%.%.%.%.%.%.%.K +.+.+.+.+.+.+.+.+.+.+.+.+.+.+.+.K %.%.%.%.%.%.$.{ ^ ^ ^ L S 6     ",
"    * S R +.+.+.+.+.+.+.+.+.+.+.F O.O.O.O.O.O.O.O.O.O.O.O.O.O.O.O.F +.o.] ^ ^ ^ ^ ^ ^ ^ L K S *     ",
"    & A K R ] ] ] ] ] ] ] ] R ] F { { { { { { { { { { { { R R T L F L T L T L T L L T L L K A &     ",
"      x F Y T T T T T T T T T T D T T T T T T T L L L L T L T T T D T T T T T T T T T T Y F x       ",
"      z D K Y Y Y Y Y T Y Y Y Y D Y Y Y Y Y Y Y Y Y Y Y T Y Y Y Y D Y Y Y Y Y Y Y Y Y Y K D z       ",
"      d D I Y Y Y Y Y Y Y Y Y Y D Y Y Y Y Y Y Y Y Y Y Y Y Y Y Y Y D Y Y Y Y Y Y Y Y Y Y I D d       ",
"      9 v I I Y Y Y Y Y Y Y Y Y V Y Y Y Y Y Y Y Y Y Y Y Y Y Y Y Y V Y Y Y Y Y Y Y Y Y Y I v 9       ",
"      = z D I I I I I I I I I I V I I I I I I I I I I I I I I I I V I I I I I I I I I I D z =       ",
"      * z V I I I I I I I I I I N I I I I I I I I I I I I I I I I N I I I I I I I I I I V z *       ",
"        g V P P P P P P P P P P N I I I I I I I I I I I I I I P I N P P P P P P P P P P V g         ",
"        f c V P P P P P P P P P n P P P P P P P P P P P P P P P P n P P P P P P P P P V c f         ",
"        j k V C U U U U U U U U n U U U U U U U U U U U U U U U U b U U U U U U U U C V k j         ",
"        8 g N M B C C C C C C C h B B B B B B B B B B B B B B B B h C C C C C C C B M N g 8         ",
"        = j n N N M B M M M M M e r r r r r r r r r r r r r r r r e M M M M M M M N N n j =         ",
"          e r b n n n n n n n n n n n n n n n n n n n n n n n n n n n n n n n n n n b r e           ",
"          & e e r r r r r r r r h r h r r h r h r h r h r r r r h r r r r r r r r r e e &           ",
"            . $ O X X X X X X X X X X X X X X X X X X X X X X X X X X X X X X X X O $ .             ",
"                  . . . . . . . . . . . . . . . . . . . . . . . . . . . . . . .                     ",
"                                                                                                    ",
"                                                                                                    ",
"                                                                                                    ",
"                                                                                                    "
};
