/* XPM */
static char *_044e2aad68c4974c52251139aa7f0cfkV4aprdo3Tt5b8Ve[] = {
/* columns rows colors chars-per-pixel */
"50 50 135 2 ",
"   c None",
".  c #000000",
"X  c #0D0D0D",
"o  c #151515",
"O  c #1B1B1B",
"+  c #232424",
"@  c #292A2A",
"#  c #3C3D3D",
"$  c #444445",
"%  c #4B4C4C",
"&  c #535454",
"*  c #575758",
"=  c #5A5B5B",
"-  c #636464",
";  c #676768",
":  c #676869",
">  c #6B6B6C",
",  c #6F6F70",
"<  c #6F7070",
"1  c #747475",
"2  c #777778",
"3  c #777878",
"4  c #7D7D7E",
"5  c #64778A",
"6  c #7F7F80",
"7  c #788A9A",
"8  c #7E8FA0",
"9  c #7F90A0",
"0  c #838484",
"q  c #868788",
"w  c #87898A",
"e  c #8A8B8C",
"r  c #8E8F90",
"t  c #939494",
"y  c #979898",
"u  c #9A9B9C",
"i  c #8696A5",
"p  c #8B9AA9",
"a  c #9FA0A1",
"s  c #97A4B2",
"d  c #9AA7B4",
"f  c #9CA9B5",
"g  c #A3A4A5",
"h  c #ABACAD",
"j  c #A1AEBA",
"k  c #A6B2BC",
"l  c #A9B4BE",
"z  c #B4B5B6",
"x  c #B6B7B8",
"c  c #BABBBB",
"v  c #ACB6C1",
"b  c #AEB8C3",
"n  c #B1BBC5",
"m  c #BCBFC1",
"M  c #BFC0C0",
"N  c #B7C0C9",
"B  c #BBC3CC",
"V  c #BFC8D0",
"C  c #C2C3C3",
"Z  c #C7C7C8",
"A  c #C7C9CA",
"S  c #C9CBCE",
"D  c #C4CCD3",
"F  c #CBD0D5",
"G  c #CDD4DA",
"H  c #D2D3D4",
"J  c #D1D6DA",
"K  c #D5D9DD",
"L  c #DADBDC",
"P  c #D7DCE0",
"I  c #DBDEE2",
"U  c #DEE2E5",
"Y  c #E2E4E6",
"T  c #E3E6E9",
"R  c #E6E8EB",
"E  c #E6E9EB",
"W  c #E7E9EB",
"Q  c #E5E8EB",
"!  c #E6E9EC",
"~  c #E7EAEC",
"^  c #E6E9EB",
"/  c #E8E9EB",
"(  c #E8EAEC",
")  c #E8EAED",
"_  c #E9EBED",
"`  c #EAEBED",
"'  c #E9EBEE",
"]  c #EBECED",
"[  c #EAECEE",
"{  c #EBEDEF",
"}  c #ECEEEF",
"|  c #EAECED",
" . c #ECEEF0",
".. c #EDEFF1",
"X. c #EEEFF1",
"o. c #EDEEF0",
"O. c #EEF0F1",
"+. c #EFF0F2",
"@. c #EFF1F2",
"#. c #EFF0F1",
"$. c #F1F1F1",
"%. c #F0F1F3",
"&. c #F0F2F2",
"*. c #F0F2F3",
"=. c #F1F2F3",
"-. c #F2F3F3",
";. c #F1F3F4",
":. c #F2F3F4",
">. c #F2F4F5",
",. c #F3F4F5",
"<. c #F3F5F6",
"1. c #F4F5F5",
"2. c #F4F5F6",
"3. c #F5F6F7",
"4. c #F5F7F7",
"5. c #F4F5F5",
"6. c #F6F7F8",
"7. c #F6F8F8",
"8. c #F7F8F9",
"9. c #F7F8F9",
"0. c #F8F9F9",
"q. c #F9F9FA",
"w. c #F9FAFA",
"e. c #FAFBFB",
"r. c #FBFBFB",
"t. c #FBFBFC",
"y. c #FBFCFC",
"u. c #FCFCFD",
"i. c #FCFDFD",
"p. c #FDFDFD",
"a. c #FDFEFE",
"s. c #FEFEFE",
"d. c #FEFEFF",
"f. c white",
"g. c #FCFDFD",
/* pixels */
"                                                                                                    ",
"                    . . . . . . . . . . . . . . . . . . . . . .                                     ",
"                . . . . . . . . . . . . . . . . . . . . . . . . .                                   ",
"              . . u p.p.p.p.p.p.p.p.p.p.0.8.,. .T I F N j i k O . .                                 ",
"            . . $.p.p.y.,.1.1.,.1.1.,.,.:.@. ._ T I G D b s l p.o . .                               ",
"            . @ p.p.I I I I I I I I I I I I K K J F D N v d k p.p.X . .                             ",
"            . 1.p.U U U U U U U U U U U U I I I K J G D B v v p.Q p.X . .                           ",
"            . p.p.U U U U U U U U U U U U U U U I P K G D B n p.I Q p.X . .                         ",
"            . p.p.Y Y Y Y Y Y U Y Y Y Y Y Y Y U U U I K J D N p.I I Q p.O . .                       ",
"            . t.t.T T T T T T T T T T T T T T T Y U U I K J B p.I I I Q p.+ . .                     ",
"            . t.t.Q Q Q Y U Q T Q Q Q Q Q Q Q Q T T Y U U P B p.I I I I Q p.@ . .                   ",
"            . 0.0.Q ! Q g H $ X J . S K g O + F X * X o t U f p.I I I I I Q p.@ . .                 ",
"            . 0.0.! ! ! g # 0 * 4 3 q * y x c = 4 # 0 0 m T n p.1.I I I I I Q p.+ . .               ",
"            . 0.0._ _ _ _ _ _ ! _ _ _ _ _ _ _ _ _ _ ! _ ! Q U f p.0.I I I I I T 0.O . .             ",
"            . 0.0.{ { { _ { { _ { { { { { { { { { { _ { _ _ ! K j 0.p.p.p.p.p.p.0.$.O .             ",
"            . 8.8.{ { { _ u h a c q u Z a y Q h e x z { { { { _ Q F N n v j s p 8 7 5 .             ",
"            . 1.1. . . . . . . . . . . . . . . . . . . . . . .{ { _ Q T I K F B k d 9 .             ",
"            . 1.1.@.@.@.{ 2 c % w - , r & & 2 t = a q Y 4 - r : T 4 t S % c K F B b d .             ",
"            . 1.1.@.@.@.@.@.@.@.@.@.@.@.@.@.@.@.@.@.@.@.@.@.@.@.@.@. .{ ! T U K F V b .             ",
"            . 1.1.$.$.$./ : t { % 0 w , 1 g , 0 Y 2 - * w : 1 q 3 y > 2 T _ Q U P G V .             ",
"            . ,.,.$.$.$.$.$.$.$.$.$.$.$.$.$.:.$.$.$.$.$.$.$.$.$.$.$.$.@. .{ _ Q U I G .             ",
"            . ,.,.,.,.,.} 6 ; 2 e 2 C w 6 w - q g L 2 2 L 2 w 3 3 1 < e 4 _  .{ Q T I .             ",
"            . $.$.,.,.,.,.,.,.,.,.,.,.,.,.,.,.,.,.,.,.,.,.,.,.,.,.,.,.,.,.:.$.@.{ Q Y .             ",
"            . $.$.,.,.,.$.2 y Z y ,.Z Z y H L : c M y 4 y g t u K 1 u u q ,.,.$.@._ Q .             ",
"            . $.$.1.1.1.1.1.1.,.,.1.1.1.1.1.1.,.1.1.,.L 1.,.H 1.1.1.1.1.1.1.1.1.$.{ _ .             ",
"            . @.@.1.8.6.1.,. .@.F 1.} 1.@.H c $.} $.$.@.1.1.@.@.y ,.@.1.6.1.8.1.1. .{ .             ",
"            . @.@.8.8.8.8.L U Y  .{ L 1.Y / } } Q Y / Y 1.Y Q Y Q  .I 8.8.8.8.8.8. .{ .             ",
"            .  . .0.0.0.0.0.$.8.1.0.0.0.0.} 0.0.} 0./ 0.@.,.0.0.0.0.0.0.0.0.0.0.8. . ..             ",
"            .  . .0.0.0.1.h c q u w w 0 / g 2 h u C t / g q 4 Y e c 0.0.0.0.0.0.8. . ..             ",
"            . { { 0.0.0.0.0.0.0.0.0.0.0.0.0.0.0.0.0.0.0.0.0.0.0.0.0.0.0.0.0.0.0.0.{ { .             ",
"            . { { 0.0.0.$.& u % t = , C > ; 1.- 4 > > 0 Y 4 * 1 $ 4 $.t 0 & 0.0.0.{ { .             ",
"            . { { t.t.t.0.t.t.0.t.t.r.t.t.t.t.0.t.t.0.t.t.0.t.t.t.t.t.t.t.0.t.t.0.{ { .             ",
"            . _ _ y.y.y.1.q 4 4 * t L ; u q q ; > g h t : c h q * : x * 2 } y.y.0._ _ .             ",
"            . ! ! p.p.p.p.p.p.t.p.p.p.p.p.p.p.p.p.p.t.p.p.p.p.p.p.p.p.p.p.p.p.p.t.! ! .             ",
"            . Q Q t.t.t.1.c 4 : L - 2 : ; 2 L t.t.t.t.t.t.t.t.t.t.t.t.t.t.t.t.t.t.Q Q .             ",
"            . Q ! p.p.p.p.p.p.t.p.p.p.p.p.p.p.p.p.p.p.p.p.p.p.p.p.p.p.p.p.p.p.p.t.! Q .             ",
"            . Q Q p.p.p.8.t = 8.c 2 c Y x H z } C F q 4 _ g c C y Z p.p.p.p.p.p.p.Q Q .             ",
"            . T Q p.p.p.p.p.0.p.0.0.0.y.0.y.y.p.0.p.y.0.1.0.0.y.y.p.0.p.p.p.p.p.p.Q T .             ",
"            . T T p.p.p.p.0.0.0.p.0.0.p.0.0.p.0.I y.y.p.p.H p.t p.c c 0.p.p.p.p.p.T T .             ",
"            . T T p.p.p.p.Y $.{ $.L L 0.Q Y L _  .Y U  .Y Y :.Y Y Y Y Y p.p.p.p.p.T T .             ",
"            . Y Y p.p.p.p.p.p.p./ p.p.p.p.p.p.p.p.p.p.p.p.p.p.p.p.p.p.p.p.p.p.p.p.Y Y .             ",
"            . Y Y p.p.p.y.y * g Z u x y c q t 0 h p.p.p.p.p.p.p.p.p.p.p.p.p.p.p.p.Y Y .             ",
"            . U U p.p.p.p.p.p.p.p.p.p.p.p.p.p.p.p.p.p.p.p.p.p.p.p.p.p.p.p.p.p.p.p.U U .             ",
"            . K U p.p.p.p.p.p.p.p.p.p.p.p.p.p.p.p.p.p.p.p.p.p.p.p.p.p.p.p.p.p.p.p.U K .             ",
"            . + U U p.p.p.p.p.p.p.p.p.p.p.p.p.p.p.p.p.p.p.p.p.p.p.p.p.p.p.p.p.p.U U + .             ",
"            . . J I U U Q Q Q Q Q Q Q Q Q Q Q Q ! ! Q ! Q Q Q Q ! ! ! ! Q Q U I I J . .             ",
"              . . q I I I U U I I I I I I I I I I U I U I I I I I U U U I I I I w . .               ",
"                . . . . . . . . . . . . . . . . . . . . . . . . . . . . . . . . . .                 ",
"                    . . . . . . . . . . . . . . . . . . . . . . . . . . . . . .                     ",
"                                                                                                    "
};
