/* XPM */
static char *_894bfd337844ae392cfed6355351910G6U3NgvfizIJVmQD[] = {
/* columns rows colors chars-per-pixel */
"50 50 150 2 ",
"   c None",
".  c #030202",
"X  c #0B0803",
"o  c #2D1C07",
"O  c #301F0A",
"+  c #717070",
"@  c #7F7D7C",
"#  c #B7701E",
"$  c #A36720",
"%  c #B06E20",
"&  c #B67220",
"*  c #B97723",
"=  c #DC710B",
"-  c #E3720A",
";  c #E6790B",
":  c #C57D23",
">  c #817F7F",
",  c #E7820F",
"<  c #EA850F",
"1  c #EB8610",
"2  c #ED8911",
"3  c #EC8D1D",
"4  c #EF9016",
"5  c #EE911C",
"6  c #F0941A",
"7  c #F39E1C",
"8  c #CE872B",
"9  c #D48826",
"0  c #DB8E2A",
"q  c #DA8B25",
"w  c #DE942C",
"e  c #C1893E",
"r  c #CC923E",
"t  c #DB9333",
"y  c #EC8E22",
"u  c #E49126",
"i  c #EF9428",
"p  c #E6982B",
"a  c #EF9A29",
"s  c #E0942B",
"d  c #F39E29",
"f  c #E99D3A",
"g  c #DEB03E",
"h  c #F2A323",
"j  c #F7AD26",
"k  c #F5A32B",
"l  c #F7AA2C",
"z  c #F8AE2D",
"x  c #F9B42E",
"c  c #E4A836",
"v  c #F5A73B",
"b  c #F5A83E",
"n  c #F5A334",
"m  c #F3B837",
"M  c #FBBC31",
"N  c #F1B33F",
"B  c #F6BB38",
"V  c #FDC232",
"C  c #FEC63B",
"Z  c #FDCA3E",
"A  c #D39E49",
"S  c #DFA245",
"D  c #DEA748",
"F  c #DEB140",
"G  c #E7A241",
"H  c #EAA643",
"J  c #E3AD42",
"K  c #EEAB44",
"L  c #E4AC48",
"P  c #F5AD45",
"I  c #EEB347",
"U  c #E5B749",
"Y  c #EDB848",
"T  c #F7B246",
"R  c #F8B547",
"E  c #F7B947",
"W  c #F9BA47",
"Q  c #FBBF48",
"!  c #E9B258",
"~  c #E3AD62",
"^  c #E6B476",
"/  c #E7B67B",
"(  c #FCC540",
")  c #FDCA45",
"_  c #F2C348",
"`  c #FBC349",
"'  c #FDCC4C",
"]  c #FFD04D",
"[  c #FEDB4E",
"{  c #F8C558",
"}  c #FAC959",
"|  c #FDE156",
" . c #FEE45A",
".. c #FAD165",
"X. c #F5D971",
"o. c #F3D571",
"O. c #FCE662",
"+. c #FDE865",
"@. c #888888",
"#. c #838281",
"$. c #949493",
"%. c #9A9896",
"&. c #9E9C99",
"*. c #A09E9C",
"=. c #AFAC91",
"-. c #A7A5A3",
";. c #A9A7A5",
":. c #AAA8A6",
">. c #AFAEAD",
",. c #B0AFAD",
"<. c #B5B4B3",
"1. c #B9B6B4",
"2. c #BBB8B6",
"3. c #BCBBBA",
"4. c #D9BC8F",
"5. c #D5BC9A",
"6. c #E2BD8D",
"7. c #C1BFBF",
"8. c #F6D182",
"9. c #FFFB88",
"0. c #F4E593",
"q. c #CBC6B2",
"w. c #EACFA5",
"e. c #E5D1AE",
"r. c #F1D5B1",
"t. c #F1D9B6",
"y. c #C5C4C4",
"u. c #C8C7C7",
"i. c #CBCACA",
"p. c #D3D3D3",
"a. c #DCDCDC",
"s. c #EADDC6",
"d. c #E5E0D3",
"f. c #EBE6DD",
"g. c #F0E8DC",
"h. c gray88",
"j. c #E1E1E1",
"k. c #E2E2E2",
"l. c gray89",
"z. c #E4E4E4",
"x. c gray90",
"c. c #E6E6E6",
"v. c #E7E7E7",
"b. c #EEEEED",
"n. c #F4EFE7",
"m. c #F7F3EB",
"M. c gray95",
"N. c #F6F6F6",
"B. c gray98",
"V. c #F9F9F9",
/* pixels */
"              ` Q Q Q Q ` ` ` ` ` ' ' ' ' ' ' ' ' ] ] ] ] ' ' ' ' ' ' ' ' ` ` ` ` ` {               ",
"          W W W W W W Q ` ` ` ` ` ` ' ' ' ' ' ' ' ] ] ] ] ' ' ' ' ' ' ' ' ` ` ` ` ` ` Q Q           ",
"      ..R R W W W W W Q Q ` ` ` ` ` ` ` ` ' ' ' ' ' ' ' ' ' ' ' ' ` ` ` ` ` ` ` ` Q Q Q W W ..      ",
"    o.R R R R W W W W W Q Q Q Y w.N.M.M.M.M.M.M.M.M.M.M.M.M.M.M.M.M.M.M.M.M.M.M.N.n.L E W W W X.    ",
"    T R R R R W W W W W W W D b.x.x.x.x.x.x.x.x.x.x.x.x.x.x.x.x.x.x.x.x.v.v.x.x.x.x.x.e.I W W W     ",
"  { T T R R R R W W W W E D x.x.x.x.x.x.x.x.x.x.x.x.x.x.x.x.x.x.x.x.x.x.x.x.x.x.x.x.x.x.4.T W W }   ",
"  T T T T T R R R W W R I f.x.x.z.x.x.x.x.x.x.x.x.x.x.x.x.x.x.x.x.x.x.x.x.x.x.x.x.x.x.x.x.A T R R   ",
"  P T T T T T L m.B.B.B.B.B.B.B.B.B.B.B.B.B.B.B.B.B.B.B.B.B.B.B.V.i.a.h.h.h.h.h.h.h.h.h.h.5.K T R   ",
"  P T T T P g.x.x.x.x.x.x.x.x.x.x.v.x.x.x.x.x.x.x.x.x.x.x.x.x.x.x.x.B.p.a.a.a.a.a.a.a.a.a.h.S T R   ",
"  P P P P s.x.x.x.x.x.x.x.x.x.x.x.x.x.x.x.x.x.x.x.x.x.x.x.x.x.x.x.x.x.b.$.$.$.$.$.$.a.a.a.a.r P T   ",
"  P P P S h.h.h.h.h.h.h.h.h.h.h.h.h.h.h.h.h.h.h.h.h.h.h.h.h.h.h.h.h.h.h.i.a.a.a.a.a.a.a.a.a.r K T   ",
"  P P P d.h.h.h.h.h.h.h.h.h.h.h.h.h.h.h.h.h.h.h.h.h.h.h.h.h.h.h.h.h.h.h.h.i.p.p.a.a.p.p.p.p.e H T   ",
"  P P H a.a.a.a.a.a.a.a.a.a.a.a.a.a.a.a.a.a.a.a.a.a.a.a.a.a.a.a.a.a.a.a.a.&.>.>.>.>.p.p.p.p.e H P   ",
"  P P S a.a.a.a.@.@.@.@.@.@.@.@.@.@.@.@.@.@.@.@.@.@.@.@.@.@.@.@.@.a.a.a.a.<.p.p.p.p.p.p.p.p.e H P   ",
"  P P S p.p.p.p.p.p.p.p.p.p.p.p.p.p.p.p.p.p.p.p.p.p.p.p.p.p.p.p.p.p.p.p.p.,.p.p.p.p.p.p.p.p.e H P   ",
"  b P S p.p.p.p.p.p.7.3.3.3.3.2.3.3.2.3.3.3.2.3.3.2.3.3.y.p.p.p.p.p.p.p.p.>.i.i.i.i.i.i.i.i.e G b   ",
"  d b S p.p.p.p.p.y.0.9.9.9.9.9.9.9.9.9.9.9.9.9.9.9.9.9.1.i.p.p.p.p.p.p.p.@ @.@.@.@.i.i.i.i.e f k   ",
"  d d t i.i.i.i.i.q.' ' ] ] ] ] ] ] ] ] ] ] ] ] ] ] ] ] ] y.i.i.i.i.i.i.i.;.i.i.i.i.i.i.i.i.* u d   ",
"  d d 0 y.u.i.i.i...' ' ' ' ' ' ' ' ' ' ' ' ' ' ] ] ] ] ] y.i.i.i.i.i.i.i.;.y.y.y.u.y.y.y.3.& u d   ",
"  d d 0 3.3.3.y.y...' ' ' ' ' ' ' ' ' ' ' ' ' ' ' ' ' ' ' 3.y.y.y.y.y.y.y.%.>.>.>.>.y.3.3.3.& u d   ",
"  d d 0 3.3.2.<.+ U ' ' ' ' ' ' ' ' ' ' ' ' ' ' ' ' ' ' ' @ > > > 1.1.1.1.&.<.1.>.>.<.1.3.3.& u d   ",
"  d d 0 <.:.*.&.&._ V V V ) ' ' ' ' ' ' ' ' ' ' ' ' ' ' ' :.:.:.:.:.:.:.-.#.&.&.&.&.&.&.;.<.& u d   ",
"  d d 8 *.=.+.V V V V V V V V V V C ' ' ' ' ' ' ' ' ' ' ' ' ' ' ) V V V V V V V V V V +.=.*.% u d   ",
"  d p : O.M M M M V V V V V V V V V V V V V V V V V V V V V V V V V V V V V V V V V V V V +.$ q d   ",
"  a 9 C M M M M M M M M M M M M M M M M V V V V V V V V V V V V V V V V V V V V V V V V V V C : a   ",
"  u [ M M M M M M M M M M M M M M M M M M M M M M M M M M M M M V V V V V V V V V V V V V V V [ u   ",
"  s M M M M M M M M M M M M M M M M M M M M M M M M M M M M M M M M M M M M M M M M M V V V V V w   ",
"  ( x x M M M M M M M M M M M M M M M M M M M M M M M M M M M M M M M M M M M M M M M M M M M M Z   ",
"  x x x x x x x x x x x x x x M M M M M M M M M M M M M M M M M M M M M M M M M M M M M M M M M M   ",
"  x x x x x x x x x x x x x x x x x x x x x x x x x x x x M M M M M M M M M M M M M M M M M M M M   ",
"  x x x x x x x x x x x x x x x x x x x x x x x x x x x x x x x x x x x x x x x M M M M M M M M M   ",
"  z z z x x x x x x x x x x x x x x x x x x x x x x x x x x x x x x x x x x x x x x x x x x x x x   ",
"  l z z z z z z z z z z z z z z x x x x x x x x x x x x x x x x x x x x x x x x x x x x x x x x x   ",
"  l l l l l l l l l l l l z z z z z z z z z z z z z z x x x x x x x x x x x x x x x x x x x x x x   ",
"  l l l l l l l l l l l l l l l l l l l l l l l z z z z z z z z z z z z z z x x x x x x x x x x x   ",
"  l l l l l l l l l l l l l l l l l l l l l l l l l l l l l l l l l l z z z z z z z z z z z z z z   ",
"  k k k k l l l l l l l l l l l l l l l l l l l l l l l l l l l l l l l l l l l l l l l l l l z z   ",
"  k k k k k k k k k k k k k k k k k l l l l l l l l l l l l l l l l l l l l l l l l l l l l l l l   ",
"  k k k k k k k k k k k k k k k k k k k k k k k k k k k l l l l l l l l l l l l l l l l l l l l l   ",
"  k k k k k k k k k k k k k k k k k k k k k k k k k k k k k k k k k k k k k k k k l l l l l l l l   ",
"  3 k k k k k k k k k k k k k k k k k k k k k k k k k k k k k k k k k k k k k k k k k k k k k k 6   ",
"  2 d d d d d d d d d k k k k k k k k k k k k k k k k k k k k k k k k k k k k k k k k k k k k k 4   ",
"  3 | d d d d d d d d d d d d d d d d d d d d k k k k k k k k k k k k k k k k k k k k k k k k  .5   ",
"  O | 2 d d d d d d d d d d d d d d d d d d d d d d d d d d d d d d k k k k k k k k k k k k h  .O   ",
"    | 2 7 ..d d d d d d d d d d d d d d d v b k d d d d d d d d d d n v k d d d d d d d 8.4 h  .    ",
"      2 7 V h ; k B B B B B B m N J J J ~ w.r./ J J J J J J J J J ! 6.t.^ J c c c p = h M 4 h       ",
"      X 7 V h ; - < 2 2 2 2 2 2 2 < 1 1 1 y y 2 1 < 1 1 1 1 1 1 1 1 2 3 2 1 1 , ; - - j V 4 X       ",
"        . F h ; - < 2 2 2 2 2 2 2 2 2 2 2 2 2 2 2 2 2 2 2 2 2 2 2 2 2 2 2 2 2 < ; - - j g .         ",
"            . o & y i i i i i i i i i i i i i i i i i i i i i i i i i i i i i y 3 # o .             ",
"                                                                                                    "
};
